<svg xmlns="http://www.w3.org/2000/svg" width="375" height="812" fill="none" viewBox="0 0 375 812">
  <path fill="#39A5D4" d="M191 109.5C154.229 61.289 178-17 280.5-38c31.5-12.5 204.794-32.881 289 30 77 57.5 1.5 157-23.5 229.5-13.366 38.76-47.5 183.5-35 267S582 734 579.5 846c-2 89.6-54.833 110.667-81 110-99.333 5-314.5 1.7-380.5-51.5-82.5-66.5-82.234-187.762-76-249 17-167 261.5-147 278-231 34.222-174.223-61.5-226.5-129-315Z"/>
  <circle cx="-18.5" cy="138.5" r="25.5" fill="#39A5D4"/>
  <circle cx="23.5" cy="180.5" r="16.5" fill="#39A5D4"/>
  <circle cx="225.5" cy="58.5" r="25.5" fill="#D1F3F6"/>
  <circle cx="267.5" cy="100.5" r="16.5" fill="#D1F3F6"/>
  <circle cx="300.5" cy="141.5" r="12.5" fill="#D1F3F6"/>
  <circle cx="56.5" cy="221.5" r="12.5" fill="#39A5D4"/>
</svg>
